<?xml version="1.0" encoding="UTF-8"?>
<!DOCTYPE svg PUBLIC "-//W3C//DTD SVG 1.1//EN" "http://www.w3.org/Graphics/SVG/1.1/DTD/svg11.dtd">
<svg version="1.1" xmlns="http://www.w3.org/2000/svg" xmlns:xlink="http://www.w3.org/1999/xlink" x="0" y="0" width="48" height="48" viewBox="0, 0, 48, 48">
  <g id="Layer_1">
    <g>
      <path d="M28,0 L48,0 L48,20 L28,20 z" fill="#2FEAFC" fill-opacity="0.16"/>
      <path d="M0,0 L24,0 L24,48 L0,48 z" fill="#535FD7" fill-opacity="0.32"/>
    </g>
    <path d="M38.629,6.573 L16.123,6.573 C14.258,6.573 12.747,8.084 12.747,9.949 L12.747,13.325 L9.371,13.325 C7.507,13.325 5.995,14.836 5.995,16.701 L5.995,39.207 C5.995,41.071 7.507,42.582 9.371,42.582 L31.877,42.582 C33.742,42.582 35.253,41.071 35.253,39.207 L35.253,35.831 L38.629,35.831 C40.493,35.831 42.005,34.319 42.005,32.455 L42.005,9.949 C42.005,8.084 40.493,6.573 38.629,6.573 z M31.455,39.207 L9.793,39.207 C9.56,39.207 9.371,39.018 9.371,38.785 L9.371,17.123 C9.371,16.89 9.56,16.701 9.793,16.701 L12.747,16.701 L12.747,32.455 C12.747,34.319 14.258,35.831 16.123,35.831 L31.877,35.831 L31.877,38.785 C31.877,39.018 31.688,39.207 31.455,39.207 z M38.207,32.455 L16.545,32.455 C16.312,32.455 16.123,32.266 16.123,32.033 L16.123,10.371 C16.123,10.138 16.312,9.949 16.545,9.949 L38.207,9.949 C38.44,9.949 38.629,10.138 38.629,10.371 L38.629,32.033 C38.629,32.266 38.44,32.455 38.207,32.455 z" fill="#61EFFD" id="clone-regular"/>
  </g>
</svg>
