<?xml version="1.0" encoding="UTF-8"?>
<!DOCTYPE svg PUBLIC "-//W3C//DTD SVG 1.1//EN" "http://www.w3.org/Graphics/SVG/1.1/DTD/svg11.dtd">
<svg version="1.1" xmlns="http://www.w3.org/2000/svg" xmlns:xlink="http://www.w3.org/1999/xlink" x="0" y="0" width="48" height="48" viewBox="0, 0, 48, 48">
  <g id="Layer_1">
    <g>
      <path d="M0,0 L24,0 L24,48 L0,48 z" fill="#535FD7" fill-opacity="0.32"/>
      <path d="M28,0 L48,0 L48,20 L28,20 z" fill="#2FEAFC" fill-opacity="0.16"/>
    </g>
  </g>
  <g id="Layer_2">
    <path d="M41.648,25.8 C41.648,19.477 37.765,14.067 32.257,11.806 L29.042,18.236 L29.042,9.413 C29.042,8.716 28.478,8.152 27.782,8.152 L20.218,8.152 C19.522,8.152 18.958,8.716 18.958,9.413 L18.958,18.236 L15.743,11.806 C10.235,14.067 6.352,19.477 6.352,25.8 L6.352,30.842 L41.648,30.842 z M42.908,33.363 L5.092,33.363 C4.395,33.363 3.831,33.928 3.831,34.624 L3.831,37.145 C3.831,37.841 4.395,38.405 5.092,38.405 L42.908,38.405 C43.605,38.405 44.169,37.841 44.169,37.145 L44.169,34.624 C44.169,33.928 43.605,33.363 42.908,33.363 z" fill="#61EFFD" id="hard-hat-solid"/>
  </g>
</svg>
