<?xml version="1.0" encoding="UTF-8"?>
<!DOCTYPE svg PUBLIC "-//W3C//DTD SVG 1.1//EN" "http://www.w3.org/Graphics/SVG/1.1/DTD/svg11.dtd">
<svg version="1.1" xmlns="http://www.w3.org/2000/svg" xmlns:xlink="http://www.w3.org/1999/xlink" x="0" y="0" width="48" height="48" viewBox="0, 0, 48, 48">
  <g id="Layer_1">
    <g>
      <path d="M0,0 L24,0 L24,48 L0,48 z" fill="#535FD7" fill-opacity="0.32"/>
      <path d="M28,0 L48,0 L48,20 L28,20 z" fill="#2FEAFC" fill-opacity="0.16"/>
    </g>
    <path d="M7.734,18.036 L23.289,25.092 C23.743,25.299 24.256,25.299 24.71,25.092 L40.265,18.036 C41.37,17.535 41.37,15.865 40.265,15.363 L24.711,8.307 C24.26,8.1 23.741,8.1 23.29,8.307 L7.734,15.363 C6.629,15.864 6.629,17.535 7.734,18.036 z M40.266,23.931 L36.387,22.173 L25.593,27.066 C25.088,27.295 24.552,27.411 24,27.411 C23.448,27.411 22.912,27.295 22.407,27.066 L11.614,22.173 L7.734,23.931 C6.629,24.432 6.629,26.101 7.734,26.602 L23.289,33.653 C23.743,33.859 24.256,33.859 24.71,33.653 L40.266,26.602 C41.371,26.101 41.371,24.432 40.266,23.931 z M40.266,32.465 L36.401,30.713 L25.593,35.613 C25.088,35.842 24.552,35.958 24,35.958 C23.448,35.958 22.912,35.842 22.407,35.613 L11.599,30.713 L7.734,32.465 C6.629,32.966 6.629,34.635 7.734,35.136 L23.289,42.187 C23.743,42.392 24.256,42.392 24.71,42.187 L40.266,35.136 C41.371,34.635 41.371,32.966 40.266,32.465 z" fill="#61EFFD" id="layer-group-solid"/>
  </g>
</svg>
