<?xml version="1.0" encoding="UTF-8"?>
<!DOCTYPE svg PUBLIC "-//W3C//DTD SVG 1.1//EN" "http://www.w3.org/Graphics/SVG/1.1/DTD/svg11.dtd">
<svg version="1.1" xmlns="http://www.w3.org/2000/svg" xmlns:xlink="http://www.w3.org/1999/xlink" x="0" y="0" width="80" height="80" viewBox="0, 0, 32, 32">
  <g id="Layer_2">
    <path d="M25.887,20.527 C25.886,20.481 25.884,20.436 25.882,20.39 C25.882,20.376 25.881,20.363 25.881,20.35 C25.868,20.007 25.838,19.669 25.792,19.335 C24.751,11.374 15.661,0 15.661,0 C15.661,0 6.57,11.374 5.529,19.335 C5.483,19.669 5.454,20.007 5.441,20.35 C5.44,20.363 5.439,20.376 5.439,20.39 C5.438,20.436 5.436,20.481 5.435,20.527 C5.434,20.599 5.432,20.672 5.432,20.744 C5.432,20.815 5.433,20.884 5.435,20.952 C5.546,26.505 10.081,30.973 15.661,30.973 C21.31,30.973 25.889,26.394 25.889,20.745 C25.889,20.672 25.888,20.599 25.887,20.527 z M12.944,26.146 C12.091,26.707 10.649,26.192 9.919,25.325 C9.316,24.608 8.734,23.481 8.378,21.807 C7.59,18.107 11.134,12.044 11.134,12.044 C10.378,14.747 10.365,17.315 10.985,19.445 C11.594,21.534 12.824,23.207 13.259,23.776 C13.981,24.72 13.797,25.586 12.944,26.146 z" fill="#686FC0" id="drop"/>
  </g>
</svg>
