<svg version="1" xmlns="http://www.w3.org/2000/svg" width="933.333" height="933.333" viewBox="0 0 700.000000 700.000000"><path d="M341.3 11.2c-8.7 11.5-27 36.2-29.3 39.4-.8 1.2-7.2 10.2-14.1 20-63.2 89.8-114.3 179.3-145.2 254.9-14.5 35.4-27 78.7-31.2 107.7-.2 2.1-.8 6.2-1.2 9-1 6.9-1 43.5-.1 51.8 6.2 54.1 30.6 103.8 69.4 141 9 8.6 15.4 14.2 19.5 17 1.1.8 3.8 2.8 5.8 4.3 9.9 7.8 34.9 21.5 50.1 27.5 7.8 3.1 26 9 30.2 9.7 1.2.3 4.6.9 7.3 1.5 4.6 1 11.2 2.1 21 3.5 14.2 2.1 56.1.8 66.5-2 .8-.2 3.1-.7 5-1 10.3-1.8 27.6-6.8 39.5-11.5 30.2-12 55.3-28.6 78.6-51.9 14.6-14.6 26.1-29.3 36.1-46.1 13.4-22.6 24.4-52.2 28.2-76.5.4-2 .8-4 1-4.4 2.6-4.2 2.7-66.8.2-71-.2-.3-.7-2.9-1-5.6-3.4-26.3-17.7-73.3-34.4-113-13.1-31.2-35.8-76.4-56.2-112-1-1.7-3.7-6.3-6-10.4-15.3-26.8-45.9-74.9-68.8-108.1-8.9-12.8-30.5-43.4-31.2-44-.3-.3-7.1-9.4-15.3-20.3C357.6 9.9 350.6 1 350 1c-.5 0-4.4 4.6-8.7 10.2zm-96.2 271.4c-2.3 9.1-4.8 21.1-5.6 26.9-.4 2.2-.8 4.7-1 5.5-.3.8-.7 4.2-1.1 7.4-.3 3.3-.8 6.9-1 8-2.2 10.5-2.2 57.2.1 70.8 5.2 31.5 8.3 42.6 17.8 65.3 9 21.4 20.2 41.3 35 61.8 4.8 6.7 10.4 15.5 12.4 19.6 3.2 6.4 3.7 8.3 3.7 14.5 0 11.1-4.2 18.8-14.7 26.8-17.4 13.3-48.7 6.2-69.2-15.8-15.8-16.9-30.7-51.5-37-85.9-1.3-6.6-1.4-40.1-.2-45 .3-1.1.8-4.3 1.1-7 .4-2.8.9-5.7 1.1-6.5.2-.8.7-3.1 1-5 3.3-19.5 14.7-54.6 27.8-85.5 7.7-18.1 30.6-65 31.3-64.2.2.2-.5 3.9-1.5 8.3z"/></svg>